<?xml version="1.0" encoding="utf-8"?>
<!-- Generator: Adobe Illustrator 22.0.0, SVG Export Plug-In . SVG Version: 6.00 Build 0)  -->
<svg version="1.1" id="レイヤー_1" xmlns="http://www.w3.org/2000/svg" xmlns:xlink="http://www.w3.org/1999/xlink" x="0px"
	 y="0px" viewBox="0 0 800 600" style="enable-background:new 0 0 800 600;" xml:space="preserve">
<style type="text/css">
	.st0{fill:url(#SVGID_1_);}
	.st1{fill:url(#SVGID_2_);}
	.st2{fill:url(#SVGID_3_);}
	.st3{fill:url(#SVGID_4_);}
	.st4{fill:url(#SVGID_5_);}
	.st5{fill:#DA251D;}
	.st6{fill:url(#SVGID_6_);}
</style>
<g>
	<linearGradient id="SVGID_1_" gradientUnits="userSpaceOnUse" x1="88.8688" y1="347.3743" x2="198.5962" y2="258.5188">
		<stop  offset="0" style="stop-color:#103675"/>
		<stop  offset="0.2761" style="stop-color:#0C1E3B"/>
		<stop  offset="0.589" style="stop-color:#103675"/>
		<stop  offset="0.816" style="stop-color:#0C1E3B"/>
	</linearGradient>
	<path class="st0" d="M186.5,248.6c15.3,24.3,30.7,50.3,37.3,78.5c-30,12.4-72.8,38.5-75.7,75.2c-0.6-7.1-3.2-13.3-6.3-19.7
		c2.6-27.1,26.6-50.1,46.7-65.7c-2.5-5.6-5.4-11.2-8.5-16.5c-19.5,18.1-43.2,42.1-46.4,69.9c-16.6-19.8-37.4-33.6-61.2-43.2
		c11.4-48.3,45-93.1,75.7-130.8c8.5,10.4,18.2,22.5,26.1,33.5c-26.3,25.4-49.6,55.3-64.8,88.7c5,3.8,8.3,6.4,12.8,10.7
		C136.6,298.2,160.4,270.2,186.5,248.6z"/>
</g>
<g>
	<linearGradient id="SVGID_2_" gradientUnits="userSpaceOnUse" x1="289.3913" y1="168.92" x2="289.3913" y2="462.011">
		<stop  offset="0" style="stop-color:#103675"/>
		<stop  offset="0.2761" style="stop-color:#0C1E3B"/>
		<stop  offset="0.589" style="stop-color:#103675"/>
		<stop  offset="0.816" style="stop-color:#0C1E3B"/>
	</linearGradient>
	<path class="st1" d="M286.7,224.7c4.5,0,9,0.8,13.3,2.4l4.8,1.8c2.2,0.8,3.7,1.2,4.6,1.2c0.7,0,1.4-0.2,2.1-0.5l2.7-1.2
		c0.4-0.2,0.8-0.3,1.2-0.3c1,0,1.5,0.7,1.5,2.2l-0.1,5.3c0,0.8,0,1.6,0.1,2.4l0.9,6.4l0.7,6c0.1,0.5,0.1,1,0.1,1.3
		c0,1.9-0.6,2.8-1.8,2.8c-0.9,0-1.5-0.8-1.9-2.5c-1.4-6.1-4.9-11.4-10.6-15.8c-5.6-4.4-11.6-6.7-17.9-6.7c-4.3,0-8.1,1.3-11.4,4
		c-3.2,2.7-4.8,5.8-4.8,9.4c0,3.4,1.4,6.2,4.3,8.7c1.8,1.6,7.5,4.1,17.1,7.7c11.4,4.2,19,8.4,22.7,12.5c4.4,4.9,6.6,10.8,6.6,17.7
		c0,7.6-3,14.3-9.1,19.9c-6.1,5.6-13.2,8.5-21.3,8.5c-3.3,0-8.6-1-15.8-3.1c-3.4-1-5.9-1.7-7.4-2c-2.2-0.4-3.5-0.8-3.9-1.1
		c-0.4-0.4-0.7-1.5-0.9-3.4c-0.2-2.1-1-5-2.2-8.9c-1.8-6-2.7-9.8-2.7-11.4c0-2.1,0.7-3.2,2.2-3.2c0.7,0,1.2,0.5,1.4,1.6
		c2.4,7.5,6.5,13.8,12.3,18.9c5.8,5.1,11.9,7.7,18.2,7.7c4.9,0,9.2-1.7,13.1-5.1c3.8-3.4,5.7-7.3,5.7-11.6c0-3.4-1-6.3-3-8.5
		c-2-2.2-5.5-4.3-10.4-6.3l-11-4.5c-10.4-4.2-17.4-8.2-21.1-11.9c-3.7-3.8-5.6-8.7-5.6-14.9c0-7.2,2.6-13.3,7.8-18.1
		C272.5,227.1,279,224.7,286.7,224.7z"/>
	<linearGradient id="SVGID_3_" gradientUnits="userSpaceOnUse" x1="405.082" y1="168.9383" x2="405.082" y2="461.9902">
		<stop  offset="0" style="stop-color:#103675"/>
		<stop  offset="0.2761" style="stop-color:#0C1E3B"/>
		<stop  offset="0.589" style="stop-color:#103675"/>
		<stop  offset="0.816" style="stop-color:#0C1E3B"/>
	</linearGradient>
	<path class="st2" d="M395.8,241.4v14.2c0,4.1,0.3,6.7,1,7.8c0.6,1.1,2.2,1.6,4.7,1.6l2.2-0.1l3.2-0.1h6.1c4.8,0,8.5-2.4,11-7.2
		l1.7-3.2c0.4-0.8,1.2-1.2,2.2-1.2c1.1,0,1.6,0.6,1.6,1.8c0,0.3-0.1,1.3-0.2,2.9c-0.1,1.1-0.2,2.1-0.2,2.9c0,1.4,0.2,4.7,0.6,9.9
		c0.3,3.4,0.4,6.3,0.4,8.8l0.1,3.4c0,0.6-0.1,1-0.2,1.2c-0.2,0.3-0.6,0.4-1.2,0.5c-1.2,0.1-2-0.7-2.2-2.5c-0.6-3.7-2.1-6.5-4.3-8.5
		c-1.2-1-2.8-1.7-4.6-2c-1.8-0.3-5.2-0.5-10.2-0.5h-4.9c-2.3,0-3.9,0.3-4.7,0.9c-0.8,0.6-1.4,1.9-1.7,3.8c-0.3,2.2-0.4,5.6-0.4,10.4
		v5.9c0,6.2,0.5,10.6,1.6,13.3c0.8,2,1.8,3.3,2.9,4c1.1,0.7,2.8,1.1,5.1,1.1c19.6,0,32.3-5.4,38.4-16.2c0.3-0.5,0.6-0.8,0.9-0.8
		c0.5-0.1,0.9,0,1.3,0.4c0.4,0.4,0.6,0.9,0.6,1.4c0,4.3-1.3,8.5-3.8,12.5c-2.1,3.4-4.8,5.9-7.9,7.3c-3.2,1.5-7.4,2.2-12.6,2.2
		c-3.1,0-6.5-0.2-10.3-0.5l-8.4-0.7c-3.1-0.3-7.2-0.4-12.5-0.4c-3.5,0-8.9,0.2-16,0.6c-2,0.1-3.4,0.2-4.3,0.2
		c-1.2,0-1.8-0.5-1.9-1.5c0-0.8,0.5-1.4,1.6-1.8c2.7-1,4.6-2,5.6-3c1-1.1,1.8-3,2.3-5.7c0.5-2.3,0.8-5.5,0.8-9.4v-52
		c0-4.9-0.9-8.2-2.6-10c-1.8-1.7-5.4-3-11-3.7c-1.3-0.2-1.9-0.8-1.9-1.9c0-1,0.8-1.5,2.4-1.5c0.3,0,1.1,0,2.2,0.1
		c0.9,0,2,0.1,3.5,0.1l7.3,0.3l27.4,0.3c15.8,0,25.5-0.2,29.1-0.6c0.4,0,0.7-0.1,1-0.1c1.4,0,2.1,0.7,2.1,2.2c0,1,0.1,2.8,0.4,5.4
		c0.4,3.8,0.6,6.5,0.6,8.2c0,3.3-0.9,5-2.8,5.1c-0.9,0-1.4-0.9-1.4-2.9c0-4.4-1.7-7.5-5.2-9.5c-3.5-2-9.1-2.9-17-2.9h-8.8l-4.9,0.5
		c-2.4,0.7-3.7,2.9-3.7,6.6L395.8,241.4z"/>
	<linearGradient id="SVGID_4_" gradientUnits="userSpaceOnUse" x1="525.1719" y1="168.9383" x2="525.1719" y2="461.9902">
		<stop  offset="0" style="stop-color:#103675"/>
		<stop  offset="0.2761" style="stop-color:#0C1E3B"/>
		<stop  offset="0.589" style="stop-color:#103675"/>
		<stop  offset="0.816" style="stop-color:#0C1E3B"/>
	</linearGradient>
	<path class="st3" d="M515.9,241.4v14.2c0,4.1,0.3,6.7,1,7.8c0.6,1.1,2.2,1.6,4.7,1.6l2.2-0.1l3.2-0.1h6.1c4.8,0,8.5-2.4,11.1-7.2
		l1.7-3.2c0.4-0.8,1.2-1.2,2.2-1.2c1.1,0,1.6,0.6,1.6,1.8c0,0.3-0.1,1.3-0.2,2.9c-0.1,1.1-0.2,2.1-0.2,2.9c0,1.4,0.2,4.7,0.7,9.9
		c0.3,3.4,0.4,6.3,0.4,8.8l0.1,3.4c0,0.6-0.1,1-0.2,1.2c-0.2,0.3-0.6,0.4-1.2,0.5c-1.2,0.1-1.9-0.7-2.2-2.5
		c-0.6-3.7-2.1-6.5-4.3-8.5c-1.3-1-2.8-1.7-4.6-2c-1.8-0.3-5.2-0.5-10.1-0.5h-4.9c-2.3,0-3.9,0.3-4.7,0.9c-0.8,0.6-1.4,1.9-1.7,3.8
		c-0.3,2.2-0.4,5.6-0.4,10.4v5.9c0,6.2,0.5,10.6,1.6,13.3c0.8,2,1.8,3.3,2.9,4c1.1,0.7,2.8,1.1,5.1,1.1c19.5,0,32.3-5.4,38.3-16.2
		c0.3-0.5,0.6-0.8,0.9-0.8c0.5-0.1,0.9,0,1.4,0.4c0.4,0.4,0.6,0.9,0.6,1.4c0,4.3-1.3,8.5-3.8,12.5c-2.1,3.4-4.8,5.9-7.9,7.3
		c-3.2,1.5-7.4,2.2-12.7,2.2c-3.1,0-6.5-0.2-10.2-0.5l-8.4-0.7c-3.1-0.3-7.3-0.4-12.5-0.4c-3.5,0-8.9,0.2-16,0.6
		c-2,0.1-3.4,0.2-4.3,0.2c-1.2,0-1.8-0.5-1.9-1.5c0-0.8,0.5-1.4,1.6-1.8c2.7-1,4.6-2,5.6-3s1.8-3,2.4-5.7c0.5-2.3,0.8-5.5,0.8-9.4
		v-52c0-4.9-0.9-8.2-2.6-10c-1.8-1.7-5.4-3-10.9-3.7c-1.3-0.2-1.9-0.8-1.9-1.9c0-1,0.8-1.5,2.4-1.5c0.3,0,1.1,0,2.2,0.1
		c0.9,0,2,0.1,3.5,0.1l7.3,0.3l27.4,0.3c15.7,0,25.4-0.2,29.1-0.6c0.4,0,0.7-0.1,1-0.1c1.4,0,2.1,0.7,2.1,2.2c0,1,0.2,2.8,0.4,5.4
		c0.4,3.8,0.6,6.5,0.6,8.2c0,3.3-0.9,5-2.8,5.1c-0.9,0-1.4-0.9-1.4-2.9c0-4.4-1.7-7.5-5.2-9.5c-3.5-2-9.1-2.9-16.9-2.9h-8.8
		l-4.9,0.5c-2.5,0.7-3.7,2.9-3.7,6.6L515.9,241.4z"/>
	<linearGradient id="SVGID_5_" gradientUnits="userSpaceOnUse" x1="645.7348" y1="168.92" x2="645.7348" y2="462.011">
		<stop  offset="0" style="stop-color:#103675"/>
		<stop  offset="0.2761" style="stop-color:#0C1E3B"/>
		<stop  offset="0.589" style="stop-color:#103675"/>
		<stop  offset="0.816" style="stop-color:#0C1E3B"/>
	</linearGradient>
	<path class="st4" d="M650.7,224.7c9,0,16.9,1.7,23.6,5.3l4.8,2.5c1,0.5,1.8,0.8,2.6,0.8c1,0,1.7-0.3,2.2-1.1l1.5-2
		c0.2-0.4,0.7-0.5,1.3-0.5c1.5,0,2.3,1.4,2.3,4.3l0.1,4.8v6l0.6,5l0.6,2.9c0.3,1.4,0.4,2.7,0.4,3.9c0,1.7-0.7,2.5-2,2.5
		c-0.8,0-1.3-0.5-1.5-1.6c-0.4-1.7-1.7-4.2-4-7.6c-2.3-3.4-4.5-6.1-6.5-8.2c-8.4-8.2-17.7-12.3-28-12.3c-9.1,0-16.5,3.4-22.2,10.2
		c-5.7,6.8-8.5,15.6-8.5,26.5c0,14.2,4.6,25.5,14,33.9c7,6.3,14.6,9.4,22.8,9.4c4.9,0,10-1.1,15.5-3.2c5.4-2.1,9.7-4.7,12.9-7.9
		l4.7-4.6c0.7-0.7,1.3-1.1,2-1.1c0.9,0,1.4,0.4,1.4,1.5c0,1.8-1.9,4.7-5.7,8.6c-10,10.2-22.3,15.4-36.9,15.4
		c-14.2,0-25.7-4.1-34.5-12.3c-8.8-8.2-13.2-18.9-13.2-32.1c0-7.2,1.7-14.3,5-21.2c3.3-6.9,7.8-12.5,13.3-16.9
		C627.9,228.2,638.5,224.7,650.7,224.7z"/>
</g>
<g>
	<path class="st5" d="M333.1,365.9l5.6,12.6c0.3,0.6,0.5,0.9,0.7,0.9c0.2,0,0.4-0.2,0.6-0.7l5.7-11.5c1.9-3.7,2.8-6.4,2.8-8.1
		c0-1.1-0.5-2-1.4-2.7c-0.6-0.5-1.6-0.8-2.9-0.9c-0.6-0.1-0.9-0.3-0.9-0.6c0-0.4,0.2-0.5,0.6-0.5c0.2,0,1.6,0.1,4.1,0.2
		c1.2,0.1,2.1,0.1,2.6,0.1c1.2,0,2.5-0.1,3.9-0.3c0.6-0.1,0.9-0.1,1-0.1c0.3,0,0.5,0.2,0.5,0.6c0,0.4-0.3,0.6-0.8,0.7
		c-0.8,0.1-1.4,0.4-1.8,0.7c-0.4,0.4-0.9,1-1.5,1.9c-0.6,1-2.4,4.7-5.5,11.2l-6.6,13.2c-0.9,1.7-1.4,2.6-1.6,2.9
		c-0.3,0.7-0.7,1-1.2,1c-0.2,0-0.4-0.1-0.5-0.2c-0.1-0.1-0.4-0.6-0.8-1.5l-0.6-1.4l-6-12.3c-1.5-3-2.7-5.7-3.7-8.1
		c-1.2-2.8-2.1-4.7-2.7-5.5c-0.7-0.9-1.7-1.5-2.9-1.8c-0.7-0.1-1-0.4-1-0.8c0-0.4,0.2-0.6,0.7-0.6c0.1,0,0.4,0,0.8,0
		c0.3,0,1.3,0.1,3.3,0.1c1.9,0.1,3.1,0.1,3.5,0.1c1,0,2,0,3.1-0.1c1.1-0.1,1.9-0.1,2.3-0.1s0.6,0.2,0.6,0.6c0,0.3-0.4,0.6-1.1,0.7
		c-1.3,0.2-1.9,0.9-1.9,2C330.4,359.1,331.3,361.8,333.1,365.9z"/>
	<path class="st5" d="M373.4,367.6v13c0,1.4,0.2,2.4,0.5,2.8c0.5,0.8,1.6,1.3,3.2,1.4c0.6,0,0.8,0.2,0.8,0.5c0,0.2-0.1,0.4-0.4,0.5
		s-0.8,0.1-1.5,0.1c-0.2,0-1.2-0.1-3-0.3c-1-0.1-1.7-0.1-2-0.1c-0.9,0-2.2,0.1-3.6,0.3c-0.4,0.1-0.7,0.1-0.9,0.1
		c-0.3,0-0.5-0.2-0.5-0.5c0-0.1,0.1-0.2,0.2-0.3c0.1-0.1,0.4-0.2,1-0.5c0.9-0.4,1.3-1.8,1.3-4.1v-7.8c0-1.2-0.1-2-0.4-2.5
		c-0.3-0.5-0.8-0.7-1.5-0.7c-0.3,0-0.5,0-0.6,0c-0.5,0-0.7-0.2-0.7-0.5c0-0.2,0.1-0.4,0.3-0.5c0.2-0.1,0.6-0.2,1.2-0.4
		c2.7-0.6,4.7-1.3,6.1-2.2c0.2-0.1,0.3-0.2,0.5-0.2c0.2,0,0.3,0.1,0.3,0.4L373.4,367.6z M370.7,355.1c0.3,0,0.8,0.3,1.4,1
		c1.3,1.4,1.9,2.3,1.9,2.6c0,0.2-0.1,0.4-0.4,0.7c-0.2,0.3-0.8,1-1.7,2c-0.5,0.6-0.9,0.9-1.2,0.9c-0.2,0-0.4-0.1-0.6-0.2
		c-0.2-0.1-0.6-0.6-1.3-1.4c-0.8-0.8-1.3-1.3-1.4-1.5c-0.1-0.2-0.2-0.3-0.2-0.5c0-0.2,0.7-1.1,2.1-2.7
		C370,355.4,370.4,355.1,370.7,355.1z"/>
	<path class="st5" d="M399.7,366.6c2.2,0,4.2,0.7,6,2.2c0.9,0.8,1.7,1.6,2.2,2.6c0.6,1,0.9,1.9,0.9,2.8c0,0.4-0.2,0.7-0.5,0.7
		c-0.3,0-2,0.1-5.2,0.1c-1.5,0-2.8,0-3.7,0.1c-0.9,0-1.6,0.1-2.2,0.1l-1.3,0c-0.7,0-1.1,0.3-1.1,0.9c0,1.8,0.6,3.4,1.7,4.9
		c1.4,1.9,3.3,2.9,5.5,2.9c1.5,0,2.9-0.4,4.2-1.1c0.3-0.2,0.9-0.6,1.7-1.3c0.1-0.1,0.3-0.2,0.4-0.2c0.1,0,0.3,0.1,0.4,0.2
		c0.1,0.1,0.2,0.2,0.2,0.3c0,0.5-0.8,1.3-2.3,2.5c-2.2,1.6-4.5,2.5-7,2.5c-2.9,0-5.3-0.9-7.1-2.7c-1.8-1.8-2.8-4.1-2.8-7
		c0-1.3,0.3-2.7,0.8-4c0.5-1.3,1.3-2.4,2.2-3.4C394.8,367.5,397.1,366.6,399.7,366.6z M399,367.7c-1.3,0-2.3,0.5-3.2,1.6
		c-0.8,1.1-1.2,2.3-1.2,3.6c0,0.4,0.1,0.6,0.4,0.7c0.2,0.1,0.9,0.1,1.9,0.1c0.5,0,1.1,0,1.8,0c1.6-0.1,2.5-0.1,2.6-0.1
		c0.9,0,1.5-0.1,1.8-0.3c0.3-0.2,0.4-0.5,0.4-1c0-1.1-0.4-2-1.2-2.9C401.5,368.3,400.3,367.7,399,367.7z"/>
	<path class="st5" d="M428.9,369.4v11.2c0,1.4,0.2,2.3,0.7,2.8c0.4,0.5,1.2,0.8,2.4,0.8c0.4,0,1-0.1,1.7-0.3
		c0.7-0.2,1.2-0.4,1.6-0.6c0.2-0.1,0.3-0.2,0.4-0.2c0.1,0,0.2,0.1,0.3,0.2c0.1,0.2,0.1,0.3,0.1,0.4c0,0.3-0.6,0.7-1.7,1.4
		c-1.5,0.9-3.1,1.4-4.9,1.4c-2.5,0-4.1-0.6-4.9-1.9c-0.4-0.6-0.7-1.6-0.7-2.9v-12.4h-1.5c-0.5,0-0.8,0-0.9-0.1
		c-0.2-0.1-0.3-0.2-0.3-0.5c0-0.2,0.2-0.5,0.6-0.8c0.7-0.4,1.7-1.3,3.1-2.5s2.2-2.2,2.7-2.9c0.5-0.7,0.9-1.1,1.2-1.1
		c0.1,0,0.2,0.3,0.2,0.9v4.7h3.7c0.5,0,0.8,0,1-0.1c0.2-0.1,0.6-0.3,1.1-0.6c0.2-0.1,0.3-0.2,0.5-0.2c0.3,0,0.4,0.1,0.4,0.3
		c0,0.1-0.1,0.3-0.2,0.6c-0.1,0.2-0.2,0.5-0.3,1c-0.1,0.5-0.3,0.8-0.4,0.9c-0.2,0.2-0.5,0.2-0.9,0.2H428.9z"/>
	<path class="st5" d="M471.7,376.3v3.8c0,1.3,0,2.1,0.1,2.3c0,0.3,0.1,0.6,0.3,0.8c0.5,0.8,1.5,1.3,3,1.5c0.5,0.1,0.8,0.2,0.8,0.6
		c0,0.3-0.1,0.4-0.4,0.5c-0.2,0.1-0.7,0.1-1.3,0.1c-0.3,0-1.3-0.1-2.9-0.3c-0.7-0.1-1.3-0.1-1.8-0.1c-1.4,0-2.7,0.1-3.8,0.3
		c-0.4,0.1-0.7,0.1-1,0.1c-0.4,0-0.6-0.2-0.6-0.5c0-0.3,0.2-0.5,0.6-0.6c0.8-0.2,1.3-0.6,1.5-1.2c0.2-0.5,0.3-1.6,0.3-3.3V376
		c0-1.9-0.4-3.4-1.1-4.5c-0.4-0.7-1-1.2-1.8-1.6c-0.7-0.4-1.6-0.6-2.4-0.6c-1.5,0-2.9,0.6-3.9,1.7c-0.3,0.3-0.5,0.6-0.6,0.9
		s-0.1,0.7-0.1,1.3v7.7c0,1.5,0.2,2.5,0.7,3c0.7,0.7,1.7,1.1,3.1,1.2c0.5,0,0.7,0.2,0.7,0.5c0,0.4-0.3,0.7-0.9,0.7s-1.2,0-2-0.1
		c-1.9-0.2-3.2-0.3-3.9-0.3c-1,0-2.1,0.1-3.4,0.2c-0.5,0.1-0.9,0.1-1.2,0.1c-0.4,0-0.6-0.1-0.6-0.5c0-0.2,0.1-0.4,0.4-0.5
		c0.9-0.3,1.5-0.6,1.7-1c0.2-0.4,0.3-1.2,0.4-2.6v-8.1c0-1.3-0.1-2-0.1-2.3c0-0.2-0.1-0.5-0.2-0.7c-0.3-0.6-0.8-0.9-1.4-0.9l-1.2,0
		c-0.3,0-0.5-0.2-0.5-0.5c0-0.3,0.1-0.5,0.4-0.6c0.3-0.1,1-0.3,2.2-0.6c1.3-0.3,2.2-0.5,2.9-0.8c0.6-0.3,1.4-0.7,2.4-1.2
		c0.1-0.1,0.2-0.1,0.3-0.1c0.2,0,0.3,0.1,0.3,0.4c0,0.1,0,0.5-0.1,1.2c0,0.3,0,0.7,0,1c0,1,0.2,1.5,0.5,1.5c0.2,0,0.4-0.2,0.8-0.6
		c0.8-0.9,1.7-1.6,2.7-2c1-0.4,2.2-0.6,3.7-0.6c3.1,0,5.3,1.2,6.5,3.7C471.4,371.6,471.7,373.6,471.7,376.3z"/>
	<path class="st5" d="M499,375c0.2-0.7,0.3-1.3,0.3-1.9c0-1.7-0.5-3.1-1.6-4.1c-0.8-0.7-1.7-1.1-2.8-1.1c-1.6,0-2.4,0.6-2.4,1.8
		c0,0.2,0,0.5,0.1,0.7c0,0.2,0.1,0.4,0.1,0.5c0,0.4-0.2,0.7-0.6,0.9c-0.7,0.4-1.8,0.6-3.2,0.6c-0.7,0-1-0.3-1-0.8
		c0-0.1,0-0.3,0.1-0.6c0.1-0.2,0.1-0.4,0.2-0.6c0.2-0.6,0.3-1.1,0.5-1.3s0.5-0.6,1-0.9c1.8-1.2,4-1.7,6.6-1.7c1.5,0,2.9,0.2,4.1,0.6
		c1.3,0.4,2.2,1,2.8,1.7c0.8,0.9,1.2,2.3,1.2,4.4c0,1.2-0.1,2.7-0.2,4.4c-0.1,1.9-0.2,3.3-0.2,4.1c0,0.8,0.2,1.4,0.5,1.7
		c0.3,0.4,0.8,0.5,1.6,0.5c0.5,0,0.8,0,1.1-0.1c0.3-0.1,0.5-0.2,0.6-0.2c0.2,0,0.3,0.1,0.3,0.3c0,0.3-0.1,0.5-0.4,0.7
		c-0.2,0.2-0.8,0.5-1.6,0.9c-1.1,0.6-2.1,0.9-2.8,0.9c-1.5,0-2.8-0.9-3.8-2.6c-3.1,1.8-5.7,2.7-7.8,2.7c-1.4,0-2.5-0.4-3.3-1.1
		c-0.8-0.7-1.2-1.8-1.2-3.1c0-2.6,1.4-4.5,4.1-5.6C492.6,376.3,495.2,375.7,499,375z M498.5,376.4c-1.5,0-2.9,0.5-4.2,1.5
		c-1.2,0.9-1.9,2-1.9,3.4c0,0.9,0.2,1.6,0.7,2.2c0.5,0.5,1.2,0.8,2,0.8c0.7,0,1.4-0.1,2.1-0.4c0.7-0.3,1.2-0.5,1.4-0.9
		c0.3-0.5,0.5-2.3,0.5-5.5V377C499.2,376.6,498.9,376.4,498.5,376.4z"/>
	<path class="st5" d="M555.9,375.1v6.4c0,1.2,0.2,2,0.5,2.4c0.4,0.5,1.3,0.8,2.5,1c0.6,0.1,0.9,0.3,0.9,0.6c0,0.4-0.3,0.6-0.8,0.6
		c-0.7,0-1.9-0.1-3.6-0.4c-0.9-0.1-1.6-0.2-2.1-0.2c-0.5,0-1.6,0.1-3.3,0.3c-0.6,0.1-0.9,0.1-1,0.1c-0.3,0-0.5-0.2-0.5-0.5
		c0-0.2,0.2-0.4,0.6-0.6c0.7-0.4,1.2-0.7,1.4-1c0.2-0.3,0.3-0.8,0.3-1.5l0-1.1v-6.3c0-1.9-0.3-3.3-0.9-4.2c-0.8-1.3-2.1-1.9-3.8-1.9
		c-1.3,0-2.4,0.3-3.2,1c-0.8,0.6-1.2,1.5-1.2,2.5v8.3c0,1.5,0.2,2.4,0.5,2.9c0.5,0.7,1.5,1.1,2.9,1.2c0.6,0.1,0.9,0.3,0.9,0.6
		c0,0.4-0.4,0.6-1.2,0.6c-0.5,0-1.7-0.1-3.4-0.3c-1.1-0.1-1.9-0.2-2.5-0.2c-0.7,0-1.6,0.1-2.9,0.3c-0.5,0.1-0.9,0.1-1.2,0.1
		c-0.4,0-0.7-0.2-0.7-0.6c0-0.2,0.1-0.4,0.4-0.5c0.9-0.3,1.4-0.7,1.6-1.1c0.2-0.5,0.3-1.1,0.3-1.7l0-1v-5.9c0-1.8-0.2-3.2-0.7-4.1
		c-0.3-0.6-0.8-1.1-1.5-1.5c-0.7-0.4-1.4-0.5-2.3-0.5c-1.5,0-2.7,0.5-3.7,1.6c-0.4,0.4-0.6,0.8-0.7,1.1c-0.1,0.3-0.2,0.8-0.2,1.3
		v7.8c0,1.3,0.2,2.1,0.6,2.6c0.3,0.4,0.6,0.7,0.9,0.8c0.3,0.1,1,0.3,2.1,0.6c0.5,0.1,0.8,0.3,0.8,0.6c0,0.4-0.3,0.6-0.8,0.6
		c-0.4,0-1.7-0.1-3.7-0.3c-1-0.1-1.9-0.1-2.7-0.1c-0.9,0-1.8,0.1-2.8,0.3c-0.4,0.1-0.8,0.1-1,0.1c-0.5,0-0.8-0.2-0.8-0.5
		c0-0.2,0.2-0.4,0.5-0.5c0.8-0.4,1.3-0.7,1.5-1.2c0.2-0.4,0.3-1.4,0.3-2.9v-0.8v-6.4c0-1.9-0.1-3.1-0.4-3.6c-0.3-0.5-1-0.7-2.2-0.6
		c-0.4,0-0.7-0.2-0.7-0.5c0-0.2,0.1-0.3,0.2-0.4c0.1,0,1.1-0.3,3.1-0.9c1.3-0.4,2.1-0.6,2.6-0.8c0.5-0.2,1-0.5,1.8-0.9
		c0.2-0.1,0.3-0.1,0.4-0.1c0.3,0,0.4,0.2,0.4,0.6c0,0.1,0,0.2,0,0.5c-0.1,0.6-0.1,1.4-0.1,2.2c0,0.6,0.1,0.8,0.4,0.8
		c0.1,0,0.6-0.4,1.4-1.3c0.6-0.6,1.4-1.1,2.4-1.6c1-0.4,1.9-0.6,2.8-0.6c1.3,0,2.6,0.4,3.9,1.2c1.1,0.7,1.8,1.4,2.1,2.1
		c0.2,0.5,0.3,0.7,0.4,0.7c0.1,0,0.3-0.2,0.5-0.5c0.5-0.8,1.4-1.5,2.7-2.3c1.4-0.9,2.9-1.3,4.5-1.3c3,0,5.1,1.1,6.4,3.4
		C555.6,370.9,555.9,372.7,555.9,375.1z"/>
</g>
<g id="レイヤー_3">
	<linearGradient id="SVGID_6_" gradientUnits="userSpaceOnUse" x1="575.4691" y1="366.9549" x2="612" y2="366.9549">
		<stop  offset="0" style="stop-color:#B11B15"/>
		<stop  offset="0.32" style="stop-color:#DA251D"/>
		<stop  offset="0.61" style="stop-color:#E53200"/>
		<stop  offset="0.84" style="stop-color:#B8140D"/>
	</linearGradient>
	<path class="st6" d="M596,394.9c0,0,3.2-18.7,16-32.3c0,0-7.4-14.3-16-23.6c0,0,5.3,19.9,0,37.8c0,0-2.3-9.7-13.9-18.5
		c0,0-4,5.1-6.7,16.2C575.5,374.5,593.9,381.6,596,394.9z"/>
	<g>
		<path class="st5" d="M592.5,355.9h3.7v0l-3,2.2l1.2,3.7l0,0l-3-2.3l-3,2.3l0,0l1.2-3.7l-3-2.2v0h3.7l1.2-3.6h0L592.5,355.9z"/>
	</g>
</g>
</svg>
